<svg width="294" height="169" viewBox="0 0 294 169" fill="none" xmlns="http://www.w3.org/2000/svg">
<rect x="1" y="1" width="292" height="167" fill="#D9D9D9" stroke="black" stroke-width="2"/>
<path d="M131.455 76.1818V98H128.813V78.9517H128.685L123.359 82.4886V79.804L128.813 76.1818H131.455ZM144.847 98.2983C143.242 98.2983 141.874 97.8615 140.745 96.9879C139.616 96.1072 138.753 94.8324 138.156 93.1634C137.56 91.4872 137.261 89.4631 137.261 87.0909C137.261 84.733 137.56 82.7195 138.156 81.0504C138.76 79.3743 139.627 78.0959 140.756 77.2152C141.892 76.3274 143.256 75.8835 144.847 75.8835C146.438 75.8835 147.798 76.3274 148.927 77.2152C150.063 78.0959 150.93 79.3743 151.526 81.0504C152.13 82.7195 152.432 84.733 152.432 87.0909C152.432 89.4631 152.134 91.4872 151.537 93.1634C150.94 94.8324 150.078 96.1072 148.948 96.9879C147.819 97.8615 146.452 98.2983 144.847 98.2983ZM144.847 95.9545C146.438 95.9545 147.673 95.1875 148.554 93.6534C149.435 92.1193 149.875 89.9318 149.875 87.0909C149.875 85.2017 149.673 83.593 149.268 82.2649C148.87 80.9368 148.295 79.9247 147.542 79.2287C146.796 78.5327 145.898 78.1847 144.847 78.1847C143.27 78.1847 142.038 78.9624 141.15 80.5178C140.262 82.0661 139.818 84.2571 139.818 87.0909C139.818 88.9801 140.017 90.5852 140.415 91.9062C140.813 93.2273 141.384 94.2322 142.13 94.9212C142.883 95.6101 143.788 95.9545 144.847 95.9545ZM163.298 98.2983C162.048 98.2983 160.923 98.0497 159.921 97.5526C158.92 97.0554 158.117 96.3736 157.514 95.5071C156.91 94.6406 156.58 93.6534 156.523 92.5455H159.08C159.179 93.5327 159.627 94.3494 160.422 94.9957C161.225 95.6349 162.183 95.9545 163.298 95.9545C164.193 95.9545 164.989 95.745 165.685 95.326C166.388 94.907 166.938 94.3317 167.336 93.6001C167.741 92.8615 167.943 92.027 167.943 91.0966C167.943 90.1449 167.734 89.2962 167.315 88.5504C166.903 87.7976 166.335 87.2045 165.61 86.7713C164.886 86.3381 164.058 86.1179 163.128 86.1108C162.46 86.1037 161.775 86.2067 161.072 86.4197C160.369 86.6257 159.79 86.892 159.335 87.2188L156.864 86.9205L158.185 76.1818H169.52V78.5256H160.401L159.634 84.9602H159.761C160.209 84.6051 160.77 84.3104 161.445 84.076C162.119 83.8416 162.823 83.7244 163.554 83.7244C164.889 83.7244 166.079 84.044 167.123 84.6832C168.174 85.3153 168.998 86.1818 169.595 87.2827C170.198 88.3835 170.5 89.6406 170.5 91.054C170.5 92.446 170.188 93.6889 169.563 94.7827C168.945 95.8693 168.092 96.7287 167.006 97.3608C165.919 97.9858 164.683 98.2983 163.298 98.2983Z" fill="black"/>
</svg>
